<?xml version="1.0" encoding="utf-8"?>
<!-- Generator: Adobe Illustrator 16.0.0, SVG Export Plug-In . SVG Version: 6.00 Build 0)  -->
<!DOCTYPE svg PUBLIC "-//W3C//DTD SVG 1.1//EN" "http://www.w3.org/Graphics/SVG/1.1/DTD/svg11.dtd">
<svg version="1.1" id="Layer_1" xmlns="http://www.w3.org/2000/svg" xmlns:xlink="http://www.w3.org/1999/xlink" x="0px" y="0px"
	 width="119px" height="119px" viewBox="0 0 119 119" enable-background="new 0 0 119 119" xml:space="preserve">
<g>
	<g>
		<path d="M94,0H25C11.193,0,0,11.193,0,25v69c0,13.807,11.193,25,25,25h69c13.807,0,25-11.193,25-25V25C119,11.193,107.807,0,94,0z
			 M37.569,31.438c-3.578,0-5.719,0.37-6.422,1.111c-0.704,0.74-1.08,2.184-1.129,4.331c-0.148,5.922-0.34,9.771-0.574,11.548
			c-0.235,1.777-0.777,3.474-1.629,5.089c-0.851,1.617-2.437,3.165-4.756,4.646c2.196,1.333,3.794,2.924,4.793,4.774
			c1,1.852,1.585,4.517,1.758,7.995l0.555,10.771c0.222,1.036,0.752,1.819,1.591,2.351c0.839,0.53,2.764,0.796,5.774,0.796v8.884
			h-1.925c-3.948,0-6.996-0.451-9.143-1.352c-2.146-0.901-3.701-2.375-4.664-4.423c-0.962-2.049-1.444-5.355-1.444-9.92
			c0-5.034-0.173-8.255-0.518-9.661c-0.346-1.406-1.012-2.695-1.999-3.868c-0.987-1.172-2.85-1.807-5.589-1.906v-8.883
			c2.689-0.024,4.713-0.82,6.07-2.387c1.357-1.567,2.036-5.089,2.036-10.568c0-4.17,0.154-7.26,0.463-9.272
			c0.308-2.011,1.055-3.695,2.239-5.052c1.185-1.357,2.714-2.338,4.59-2.943c1.875-0.604,4.528-0.907,7.958-0.907h1.962V31.438z
			 M51.561,82.519h-11.29V70.304h11.29V82.519z M65.553,82.519h-11.29V70.304h11.29V82.519z M79.543,82.519H68.254V70.304h11.289
			V82.519z M107.526,62.604c-2.689,0.025-4.714,0.827-6.07,2.406c-1.357,1.579-2.036,5.084-2.036,10.512
			c0,4.195-0.147,7.298-0.444,9.31c-0.296,2.011-1.036,3.695-2.221,5.053c-1.185,1.356-2.715,2.337-4.59,2.942
			c-1.875,0.604-4.528,0.907-7.958,0.907h-1.962v-8.884c3.43,0,5.534-0.358,6.312-1.073c0.777-0.716,1.19-2.172,1.24-4.368
			c0.147-6.316,0.376-10.37,0.685-12.159c0.308-1.789,0.925-3.461,1.851-5.016c0.925-1.555,2.388-2.911,4.386-4.071
			c-2.122-1.382-3.603-2.739-4.441-4.072s-1.406-2.782-1.702-4.349c-0.297-1.566-0.519-4.479-0.667-8.735
			c-0.147-4.256-0.32-6.693-0.518-7.31c-0.198-0.617-0.673-1.147-1.426-1.592s-2.671-0.667-5.756-0.667v-8.846h1.962
			c3.948,0,6.996,0.451,9.143,1.351c2.147,0.901,3.702,2.375,4.664,4.423c0.963,2.048,1.443,5.354,1.443,9.919
			c0,5.232,0.191,8.526,0.574,9.883c0.382,1.357,1.061,2.597,2.035,3.72c0.975,1.123,2.808,1.734,5.497,1.832V62.604z"/>
	</g>
</g>
</svg>
